<?xml version="1.0" encoding="utf-8"?>
<!-- Generator: Adobe Illustrator 24.2.1, SVG Export Plug-In . SVG Version: 6.00 Build 0)  -->
<svg version="1.1" id="Capa_1" xmlns="http://www.w3.org/2000/svg" xmlns:xlink="http://www.w3.org/1999/xlink" x="0px" y="0px"
	 viewBox="0 0 255.37 248.37" style="enable-background:new 0 0 255.37 248.37;" xml:space="preserve">
<style type="text/css">
	.st0{fill:#EFB014;}
	.st1{fill:#010202;}
</style>
<path class="st0" d="M127.79,248.36c-41.68,0-83.36,0-125.04-0.01c-3.07,0-2.74,0.38-2.74-2.68C0,164.69,0.01,83.7,0.01,2.72
	C0.01-0.22-0.26,0,2.77,0c83.29,0,166.58,0,249.88,0c3.1,0,2.7-0.3,2.7,2.72c0.01,80.98,0.01,161.97,0,242.95
	c0,3.09,0.36,2.67-2.73,2.67C211.02,248.36,169.4,248.36,127.79,248.36z M85.55,50.5c-3.73,0-7.47-0.01-11.2,0
	c-2.1,0.01-2.21,0.07-2.28,2.15c-0.11,3.4-0.57,6.73-1.52,10.02c-10.76,37.52-21.49,75.05-32.22,112.58
	c-0.15,0.52-0.31,1.05-0.37,1.58c-0.1,0.81,0.28,1.3,1.13,1.33c0.34,0.01,0.68,0.01,1.02,0.01c5.09,0,10.18,0.01,15.27,0
	c2.14,0,2.26-0.11,2.8-2.13c1.77-6.68,3.53-13.36,5.3-20.05c1.09-4.13,2.21-8.25,3.25-12.39c0.26-1.04,0.75-1.53,1.83-1.41
	c0.27,0.03,0.54,0,0.81,0c10.93,0,21.85,0,32.78,0c0.34,0,0.68,0.02,1.02,0c0.81-0.05,1.28,0.3,1.42,1.11
	c0.07,0.4,0.23,0.78,0.33,1.17c2.87,10.39,5.74,20.77,8.61,31.16c0.68,2.48,0.74,2.53,3.36,2.53c5.43,0,10.86,0,16.29,0
	c2.9,0,2.95-0.08,2.12-2.88c-7.44-25.22-14.88-50.44-22.32-75.66c-4.58-15.53-9.17-31.07-13.75-46.6c-0.75-2.54-0.75-2.54-3.51-2.54
	C92.34,50.5,88.94,50.5,85.55,50.5z M185.37,135.19c0,0.05,0,0.11,0,0.16c3.33,0,6.65,0.06,9.98-0.01
	c5.02-0.11,10.04-0.18,15.05-0.64c2.26-0.21,2.56-0.51,3.06-2.75c0.3-1.34,0.35-2.69,0.47-4.04c0.56-6.73,0.38-13.43-1.39-20
	c-1.89-7.02-5.12-13.28-10.66-18.15c-5.12-4.51-11.2-6.77-17.93-7.39c-8.37-0.77-16.22,0.76-23.32,5.42
	c-7.06,4.62-11.74,11.15-14.95,18.84c-2.75,6.58-4.13,13.46-4.56,20.55c-0.57,9.31,0.22,18.47,3.51,27.24
	c5.62,15.04,16.49,23.4,32.48,25.15c5.03,0.55,10.03,0.38,15.03-0.16c4.4-0.48,8.66-1.53,12.78-3.2c1.87-0.76,2.76-1.87,2.69-3.99
	c-0.13-3.93-0.04-7.87-0.04-11.81c0-3.09,0.01-3.07-2.88-1.97c-7.99,3.03-16.22,3.84-24.6,2.28c-6.96-1.29-12.21-5.03-15.28-11.55
	c-1.82-3.87-2.61-7.97-2.76-12.21c-0.06-1.77-0.04-1.77,1.74-1.77C170.98,135.19,178.17,135.19,185.37,135.19z"/>
<path class="st1" d="M85.55,50.5c3.39,0,6.79,0,10.18,0c2.76,0,2.76,0,3.51,2.54c4.58,15.53,9.17,31.07,13.75,46.6
	c7.44,25.22,14.88,50.44,22.32,75.66c0.83,2.8,0.77,2.88-2.12,2.88c-5.43,0-10.86,0-16.29,0c-2.61,0-2.67-0.05-3.36-2.53
	c-2.87-10.39-5.74-20.77-8.61-31.16c-0.11-0.39-0.26-0.77-0.33-1.17c-0.15-0.81-0.61-1.16-1.42-1.11c-0.34,0.02-0.68,0-1.02,0
	c-10.93,0-21.85,0-32.78,0c-0.27,0-0.55,0.03-0.81,0c-1.08-0.13-1.56,0.37-1.83,1.41c-1.04,4.14-2.16,8.26-3.25,12.39
	c-1.77,6.68-3.53,13.37-5.3,20.05c-0.54,2.02-0.66,2.13-2.8,2.13c-5.09,0.01-10.18,0-15.27,0c-0.34,0-0.68,0-1.02-0.01
	c-0.85-0.04-1.23-0.52-1.13-1.33c0.07-0.53,0.22-1.06,0.37-1.58c10.73-37.53,21.46-75.06,32.22-112.58
	c0.94-3.29,1.4-6.62,1.52-10.02c0.07-2.08,0.18-2.14,2.28-2.15C78.08,50.49,81.82,50.5,85.55,50.5z M99.71,123.27
	c-4.64-18.07-9.74-35.87-14.12-53.89c-3.84,18.13-8.98,35.87-13.64,53.89C81.26,123.27,90.39,123.27,99.71,123.27z"/>
<path class="st1" d="M185.37,135.19c-7.19,0-14.39,0-21.58,0c-1.78,0-1.81,0-1.74,1.77c0.15,4.24,0.94,8.35,2.76,12.21
	c3.07,6.52,8.32,10.26,15.28,11.55c8.39,1.55,16.61,0.75,24.6-2.28c2.89-1.1,2.88-1.12,2.88,1.97c0,3.94-0.1,7.88,0.04,11.81
	c0.07,2.12-0.82,3.23-2.69,3.99c-4.12,1.67-8.38,2.72-12.78,3.2c-5,0.54-10,0.71-15.03,0.16c-15.99-1.74-26.86-10.11-32.48-25.15
	c-3.28-8.78-4.08-17.94-3.51-27.24c0.44-7.09,1.82-13.97,4.56-20.55c3.21-7.69,7.89-14.22,14.95-18.84
	c7.1-4.65,14.95-6.19,23.32-5.42c6.73,0.62,12.81,2.88,17.93,7.39c5.54,4.88,8.77,11.13,10.66,18.15c1.77,6.57,1.95,13.26,1.39,20
	c-0.11,1.35-0.17,2.7-0.47,4.04c-0.5,2.24-0.8,2.54-3.06,2.75c-5.01,0.46-10.03,0.53-15.05,0.64c-3.32,0.07-6.65,0.01-9.98,0.01
	C185.37,135.3,185.37,135.25,185.37,135.19z M178.12,119.2c0-0.01,0-0.01,0-0.02c4.68,0,9.36,0.01,14.05-0.01
	c1.97-0.01,2.09-0.09,2.11-2.06c0.05-4.3-0.97-8.33-3.35-11.96c-1.69-2.59-4-4.46-6.98-5.32c-5.83-1.68-12.91-0.64-17.36,6.01
	c-2.39,3.57-3.58,7.58-4.17,11.78c-0.22,1.53-0.16,1.57,1.45,1.57C168.62,119.21,173.37,119.2,178.12,119.2z"/>
<path class="st0" d="M99.71,123.27c-9.33,0-18.45,0-27.76,0c4.65-18.02,9.8-35.76,13.64-53.89C89.97,87.4,95.07,105.21,99.71,123.27
	z"/>
<path class="st0" d="M178.12,119.2c-4.75,0-9.5,0.01-14.25-0.01c-1.6-0.01-1.66-0.04-1.45-1.57c0.59-4.2,1.78-8.21,4.17-11.78
	c4.45-6.65,11.54-7.69,17.36-6.01c2.97,0.86,5.28,2.73,6.98,5.32c2.37,3.63,3.39,7.66,3.35,11.96c-0.02,1.98-0.14,2.06-2.11,2.06
	c-4.68,0.02-9.36,0.01-14.05,0.01C178.12,119.19,178.12,119.2,178.12,119.2z"/>
</svg>
