<svg id="Capa_1" data-name="Capa 1" xmlns="http://www.w3.org/2000/svg" viewBox="0 0 468 468"><defs><style>.cls-1{fill:#f0b015;}</style></defs><path class="cls-1" d="M467.51,468q-232.86,0-465.72,0C.33,468,0,467.67,0,466.21Q.06,234,0,1.79C0,.33.33,0,1.79,0Q234.65.06,467.51,0c0,.71-.05,1.42-.05,2.14V465.82C467.46,466.54,467.49,467.25,467.51,468ZM258.87,259.83H259v77.58c0,2.71.6,3.42,3,3.43,11.56,0,23.11,0,34.67,0a2.52,2.52,0,0,0,2.85-2.69c.06-.78.06-1.56.06-2.34q0-67.54,0-135.09c0-1.36,0-2.72,0-4.09a2.06,2.06,0,0,1,1.85-2.31c1.71-.36,3.38-.86,5.08-1.25,9.9-2.26,19.87-3.28,29.86-.84,11.44,2.8,16,10.46,18.14,20.06,1.36,6.19,1.15,12.52,1.15,18.82q0,53,0,106c0,3,.65,3.68,3.64,3.69h32.91c3.43,0,3.95-.52,3.95-3.93q0-57.5,0-115a96.11,96.11,0,0,0-3.28-26.57,54.53,54.53,0,0,0-10.89-21c-10.72-12.47-25-17.55-40.82-19.12a127.88,127.88,0,0,0-30.09.77c-5.79.8-11.51,1.87-17.21,3.1-6.4,1.38-12.68,3.17-18.92,5.12-4.75,1.48-9.46,3.12-14.12,4.87-3,1.14-3.05,1.41-3,4.63.16,5.2,1,10.35,1,15.56Q258.86,224.54,258.87,259.83Zm-112.1,11.3c11.16,0,22.33,0,33.49,0,1.78,0,2.71.54,3.17,2.34,1.43,5.51,3,11,4.51,16.47,1.69,6.18,3.33,12.38,5,18.56,1.77,6.5,3.58,13,5.37,19.48.93,3.37,1.8,6.75,2.8,10.1.49,1.64,1.44,2.82,3.46,2.81,12.27,0,24.54,0,36.81,0,2.06,0,2.84-1,2.29-3q-2-7.09-4.07-14.18c-1.74-6-3.54-11.91-5.3-17.87-1.61-5.47-3.2-10.94-4.81-16.41-1.75-6-3.53-11.92-5.3-17.88l-5-16.95q-2.47-8.28-4.95-16.56c-1.72-5.83-3.4-11.68-5.12-17.52-1.66-5.65-3.37-11.28-5-16.93s-3.3-11.45-5-17.17-3.42-11.28-5.1-16.93c-1.77-6-3.5-11.93-5.25-17.9-1.67-5.71-3.36-11.43-5-17.15-1.62-5.54-3.2-11.08-4.84-16.61-2.09-7.07-4.28-14.12-6.33-21.21-.89-3.11-1.17-3.47-4.36-3.47q-21.12,0-42.26,0c-5.69,0-5.5-.36-5.59,5.22-.19,11.11-4,21.37-6.77,31.87-1.58,5.94-3.45,11.8-5.13,17.71s-3.24,11.73-4.91,17.59c-2.07,7.28-4.22,14.54-6.3,21.83-2.39,8.39-4.73,16.81-7.13,25.21-1.69,5.91-3.47,11.8-5.15,17.71S81.71,242,80.05,247.83c-1.73,6.1-3.55,12.18-5.29,18.28-2.39,8.41-4.7,16.84-7.1,25.24-1.69,5.92-3.5,11.8-5.2,17.71-2.25,7.78-4.49,15.56-6.63,23.37-.55,2-1.47,4-1.41,6.22,0,1.43.5,2.19,2,2.19H90.13a2.65,2.65,0,0,0,2.75-2c1.28-3.61,2-7.37,3-11.05,1.69-6.18,3.22-12.41,4.88-18.61,1.37-5.13,2.84-10.23,4.22-15.36,1.82-6.75,3.73-13.48,5.31-20.29.5-2.18,1.54-2.43,3.34-2.42C124.7,271.16,135.73,271.14,146.77,271.13Z"/><path class="cls-1" d="M146.88,233.93H123.13c-2.39,0-2.51-.31-1.86-2.62,1.43-5,2.72-10.12,4.06-15.19q2.55-9.72,5.08-19.44c1.68-6.46,3.37-12.9,5-19.36,1.78-7,3.58-14.06,5.21-21.13,1.75-7.57,3.31-15.19,4.94-22.8.1-.44.13-.9.21-1.34s.32-1.05.94-1.09.76.57.88,1.06c1.22,5.3,2.38,10.62,3.67,15.9,1.57,6.48,3.25,12.94,4.9,19.4q1.84,7.25,3.74,14.48c1.45,5.51,2.94,11,4.38,16.51,1.2,4.58,2.33,9.16,3.52,13.73q2.1,8.09,4.26,16.15a29.88,29.88,0,0,0,1,4.15c.39.93-.06,1.51-1.08,1.55s-1.81,0-2.72,0H146.88Z"/></svg>