<svg id="Capa_1" data-name="Capa 1" xmlns="http://www.w3.org/2000/svg" viewBox="0 0 468 468"><defs><style>.cls-1{fill:#f0b015;}</style></defs><path class="cls-1" d="M2.9,402.76a45.4,45.4,0,0,0-1.57-7.28c-2.06-18.34-1-36.74-1-55.12-.13-82.48,0-165-.1-247.44,0-10.7,1-21.18,4.11-31.44L6.51,55.3a121.89,121.89,0,0,1,8.58-16l.67-1,5.18-6.73.48-.57a2.83,2.83,0,0,0,1.21-1.45,1.4,1.4,0,0,0,.92-.91l4.77-4.77.91-.91a2.87,2.87,0,0,0,1.44-1.22,1.74,1.74,0,0,0,1.15-1L38,16l1-.67A122.5,122.5,0,0,1,55,6.8L61.2,4.62C71.45,1.49,81.94.5,92.63.5Q219.86.62,347.1.59c16,0,32.14-.93,48.16,1l7.22,1.54,8.29,2.6,14.09,6.71c2.4,1.62,4.85,3.18,7.2,4.87a95.37,95.37,0,0,1,21.6,22.41c.85,1.39,1.71,2.77,2.56,4.15l2.45,4.45,2.76,5.89c1.91,5.27,3.61,10.6,5,16a19.75,19.75,0,0,0,.84,5l.12,1.22.24,1.49c1.09,101.42.16,202.84.49,304.26,0,5-.88,9.89-1.45,14.82l-1.23,5.67a127.42,127.42,0,0,1-7.16,18.61q-3.64,5.78-7.31,11.53l-2.07,2.8-5.13,5.79-2.56,2.56-5.79,5.14-2.81,2.07a142.34,142.34,0,0,1-13.89,8.44,128.24,128.24,0,0,1-16.25,6L396.8,467c-8.19,1.44-16.47,1.5-24.75,1.51H93.22A138.67,138.67,0,0,1,70,466.72c-5.42-1.42-10.78-3.06-16-5L48.09,459a13.81,13.81,0,0,0-3.81-2,25.27,25.27,0,0,0-4.79-3,95.86,95.86,0,0,1-27.28-28.8L9,419.31l-.85-2-2.29-5.23Q4.39,407.42,2.9,402.76ZM186.15,280.41h7.74a47.75,47.75,0,0,0,7.75,0h7.74a47.75,47.75,0,0,0,7.75,0,11.13,11.13,0,0,0,2.3.07c2.37-.43,3.23.64,3.72,2.88.87,3.89,2.13,7.69,3.22,11.53a7.8,7.8,0,0,0,.71,3.09c1.18,4.29,2,8.69,3.53,12.87a17.17,17.17,0,0,0,1.12,4.69l.84,2.59a45,45,0,0,0,1.39,6c.42,2,1.47,2.67,3.41,2.65,5.24-.07,10.48,0,15.72,0H274c1.74,0,3.5-.68,2.82-2.59-2.48-7.09-4-14.44-6.51-21.52a50.87,50.87,0,0,0-2.48-8.28,29.64,29.64,0,0,0-2.06-7.2,152.27,152.27,0,0,0-4.66-16,24.52,24.52,0,0,0-1.69-6.18c-1.54-5.72-3-11.47-5-17.05a14.62,14.62,0,0,0-1.23-4.64q-2.74-9.3-5.48-18.6a29.54,29.54,0,0,0-2.05-7.19,43.33,43.33,0,0,0-2.19-7.75l-2.07-7.25c0-.4.06-.81-.37-1.07l-.17-1a1,1,0,0,0-.43-1,6.13,6.13,0,0,0-.66-2.59l-3-10.31A157.49,157.49,0,0,0,232.17,171a95.86,95.86,0,0,0-3.11-10.89,18.16,18.16,0,0,0-1.54-5.24c-1.12-5-2.69-10-4.25-14.86a51.86,51.86,0,0,0-2.47-8.37c-.42-1.73-.72-3.49-1.29-5.17-2.78-8.2-.17-7.3-10.12-7.12a47.75,47.75,0,0,0-7.75,0h-7.75c-2,0-4.07-.11-6.1-.11a2.5,2.5,0,0,0-2.66,1.94c-.91,3.33-1.77,6.68-2.65,10a56.63,56.63,0,0,0-2.59,8.81,141.33,141.33,0,0,0-4,13.95q-1.51,5.15-3,10.3a16.18,16.18,0,0,0-1.23,4.63c-.14.35-.27.7-.4,1.05l-.19,1L166.25,187l-1.32,5.13c-2.15,6.29-3.88,12.7-5.57,19.12a28.58,28.58,0,0,0-1.74,6.15l-2.31,7.79c-1.65,5.1-3.2,10.22-4.37,15.46l-2.36,7.77-4.35,15.47a55.46,55.46,0,0,0-2.43,8.29l-2.07,7.25L134.06,299a4.44,4.44,0,0,0-.63,2.56,163.91,163.91,0,0,0-4.65,15.93c-.66,2-1.38,4.08-2,6.16-.36,1.28-.41,2.58,1.49,2.73.13.09.27.27.41.27q17.86,0,35.72.05a2.14,2.14,0,0,0,2.3-1.92c.54-2.22,1.13-4.43,1.7-6.65a21.65,21.65,0,0,0,1.27-5.13q2.46-9,4.94-18.07a8.39,8.39,0,0,0,.7-3.12l3.11-11.24ZM284.4,132.2a16.77,16.77,0,0,0-1.14,7.77,15.55,15.55,0,0,0,1.46,8.28,5.35,5.35,0,0,0,1.61,3.06,12.63,12.63,0,0,0,4.5,5.06,3.85,3.85,0,0,0,2.57,1.72c2.63,2,5.72,2.66,8.92,3a28.81,28.81,0,0,0,7.76,0,17.88,17.88,0,0,0,7.76-1.94,12.84,12.84,0,0,0,5.25-3.09,11.1,11.1,0,0,0,3.38-3.54,8.66,8.66,0,0,0,2.28-4.22,16,16,0,0,0,1.46-8.31,12.94,12.94,0,0,0-.6-5.69,16.5,16.5,0,0,0-3.54-7.73,4.65,4.65,0,0,0-1.91-2.11,14.81,14.81,0,0,0-5.72-4.15,18.32,18.32,0,0,0-8.38-2.43,23,23,0,0,0-7.72,0,18.09,18.09,0,0,0-7.76,2.49,14.45,14.45,0,0,0-5.3,4.09,7.18,7.18,0,0,0-2.32,2.91A11.87,11.87,0,0,0,284.4,132.2Zm26.18,46.08H295.09l-4.39,0c-3.14,0-3.68.52-3.68,3.76,0,7.37,0,14.74,0,22.1q0,59.36,0,118.71c0,3.39.45,3.84,3.85,3.84h30.45c4.25,0,4.55-.29,4.55-4.48V182.88c0-.61,0-1.21,0-1.81-.09-1.82-.89-2.88-2.88-2.82s-3.78,0-5.67,0Z"/><path class="cls-1" d="M213.42,239.66l.18,1a3.82,3.82,0,0,0,0,.76c.41,1.72,1.7,4,1,5-.79,1.26-3.29.2-5,.47l-.25,0c-6.35,0-12.71-.15-19.05,0-2.24,0-3.18-.3-2.23-2.72a19.11,19.11,0,0,0,.67-3.51c.62-2.56,1.23-5.12,1.85-7.68.31-1.94,1.23-3.76,1.17-5.77l2.37-9.88A112.14,112.14,0,0,0,197.05,204l.37-1,.14-1a51.68,51.68,0,0,0,1.36-8.27,33.58,33.58,0,0,0,1.13-7.25,7.37,7.37,0,0,0,.6-3.53c1.08,1,.74,2.36,1.09,3.55a65,65,0,0,0,1.39,9.3,22.15,22.15,0,0,0,.93,7,39.85,39.85,0,0,0,1.75,7c1,5.05,2.26,10,3.72,15a117.33,117.33,0,0,0,3.41,12.91l.16,1C213.12,239,213,239.41,213.42,239.66Z"/></svg>