<svg id="Capa_1" data-name="Capa 1" xmlns="http://www.w3.org/2000/svg" viewBox="0 0 468 468"><defs><style>.cls-1{fill:#f0b015;}</style></defs><path class="cls-1" d="M466.48,468.8q-229,0-458,.2c-7.1,0-8.5-1.4-8.49-8.53q.39-226,0-451.94C0,1.4,1.39,0,8.49,0q229,.39,458,.2Zm-156-135c1.59,8.92.46,20.19,4.91,23.25,5.7,3.9,15.89,1.2,24.15,1.3,4.83.05,9.7-.39,14.48.11,6,.62,7.21-1.61,7.09-7.47-.55-28.07-.65-56.16-.69-84.25-.09-50.27-.22-100.55.17-150.83.06-7.86-1.94-10.19-9.71-9.64-10.3.73-20.69.18-31,.18-13.47,0-13.47,0-13.47,13.61v81.06a46.29,46.29,0,0,0-25.44-17.54c-29-8.53-61.16,2.25-79.36,26.53-24.35,32.5-25.5,87.87-2.39,121.31C229.11,374.79,287.37,370.18,310.48,333.84ZM105.21,238.31c0,37.47.1,74.94-.1,112.4,0,5.38.58,8.09,7,7.84,13.45-.52,26.93-.36,40.38-.05,5.12.11,7.19-.92,7.18-6.72q-.3-112.93,0-225.85c0-5.63-1.79-7.07-7.09-6.93-12.77.33-25.56.52-38.31,0-7.12-.32-9.33,1.59-9.25,9C105.43,164.76,105.21,201.53,105.21,238.31Z"/><path class="cls-1" d="M466.48,468.8V.2c4.09-.32,2,2.86,2,4.17q.17,230.13,0,460.26C468.45,465.94,470.57,469.12,466.48,468.8Z"/><path class="cls-1" d="M306.73,270.29c-.2,7.31-.35,14.56-1.71,21.77-2.54,13.46-10.13,22.54-23.3,26.25-12.85,3.62-26.48-1.56-34.75-12.57-12.92-17.2-12.47-53.73.86-70.53,8.43-10.62,22.57-15.7,35.13-11.64,12.9,4.17,20.54,13.49,22.39,27.06C306.24,257.13,306.29,263.73,306.73,270.29Z"/></svg>