<svg id="Capa_1" data-name="Capa 1" xmlns="http://www.w3.org/2000/svg" viewBox="0 0 468 468"><defs><style>.cls-1{fill:#f0b015;}</style></defs><path class="cls-1" d="M466.55,234.39c0,73.43-.15,146.86.22,220.28,0,8.61-1.74,11-10.74,11q-221.46-.5-442.92,0c-9.58,0-11.24-2.84-11.22-11.64q.39-220.86,0-441.74C1.86,3.29,3.79.69,13.19.72q220.88.5,441.74,0c10.13,0,11.91,2.79,11.86,12.26C466.37,86.75,466.55,160.57,466.55,234.39ZM82.4,233.2q0,63.63,0,127.25c0,5-.4,8.57,7,8.51,47.92-.39,95.83-.27,143.75-.09,5.37,0,7.61-1.06,7.43-7-.42-14.13-.48-28.29,0-42.41.23-6.43-2-7.8-8-7.72-24,.33-47.93-.36-71.86.38-9.84.3-12.26-2.55-12.19-12.28.45-64,.08-128,.43-192.06,0-8.08-1.71-10.78-10.16-10.38-15.67.73-31.43.69-47.11,0-8-.34-9.52,2.3-9.46,9.75C82.59,149.15,82.4,191.18,82.4,233.2Zm237-23.54c-.44-8.56-1.29-17.12-1.17-25.67.09-6.15-1-9.13-8.2-8.75-12.13.63-24.34.59-36.48,0-6.64-.32-7.83,2.3-7.49,8.06,3.48,59.21,1.45,118.48,1.79,177.73,0,6.13,1.58,8.07,7.82,7.87,14.11-.46,28.27-.62,42.37,0,7.78.36,9.72-2,9.61-9.66-.45-30.61-.34-61.22-.13-91.83.14-19.85,11.23-35,29.14-39.13a55.6,55.6,0,0,1,19.84-.82c8.78,1.2,10.39-2.07,9.89-10-.71-11.34-1.07-22.84.07-34.1,1.16-11.58-4.42-13.16-13.65-12.29C347.75,173.48,331.28,187.16,319.42,209.66Z"/></svg>