<svg id="Capa_1" data-name="Capa 1" xmlns="http://www.w3.org/2000/svg" viewBox="0 0 468 468"><defs><style>.cls-1{fill:#f0b015;}</style></defs><path class="cls-1" d="M1.14.09Q232.49.09,463.83,0c3.42,0,4.19.77,4.19,4.2q-.15,229.8,0,459.62c0,3.43-.77,4.2-4.19,4.2q-231.34-.15-462.69-.09ZM75.3,234.92c0,39.44,0,78.88-.08,118.32,0,3.68.75,4.93,4.68,4.87,15.49-.24,31-.29,46.48,0,4.32.08,4.89-1.39,4.87-5.17-.15-26.8,0-53.6-.16-80.4,0-3.33.86-4,4.06-3.7a155.53,155.53,0,0,0,58.64-4.94c18.52-5.33,34.68-14.59,46.09-30.69,10-14.11,14-30.18,14.15-47.27.17-25.63-8.88-46.93-30.13-62.12-14-10-30.08-14.25-46.84-15.9-32.52-3.21-64.92-1.11-97.26,2.88-3.46.43-4.62,1.57-4.61,5.32C75.36,155.74,75.3,195.33,75.3,234.92ZM314.78,361.67c20.13.24,38.48-4.22,52.56-12.22,33.88-19.25,34.94-69.11,3.72-89.45-10.82-7.05-22.75-11.29-34.55-16-5.64-2.24-11.34-4.32-16.15-8.19a11.79,11.79,0,0,1-4.73-10.74c.54-6.89,6.06-11.93,14.73-13,15-1.84,28.86,2.15,42.28,8.28,2.41,1.11,3.51,1.45,4.26-1.76q3.87-16.41,8.35-32.66c.73-2.63-.09-3.28-2.25-4.19-15.79-6.7-32.37-9.06-49.34-9-18.64.07-36,4.42-51.14,16C257.33,208.14,251,250,284.08,272.29c9.54,6.43,20,10.74,30.58,14.8,6.35,2.42,12.95,4.35,18.58,8.39a13.56,13.56,0,0,1,6,13.42c-.66,5.55-4,9.07-9,11a39.72,39.72,0,0,1-17.48,2.28,108.89,108.89,0,0,1-42.57-12c-2.36-1.22-3.37-1.49-4.1,1.78-2.44,11-5.07,21.9-8.14,32.7-1.06,3.75,0,5,3.18,6.4C278.27,358.47,296.3,361.19,314.78,361.67Z"/><path class="cls-1" d="M131.28,188.08c0-10.65.17-21.31-.09-32-.09-3.68.7-5.3,4.66-5.77,13.81-1.64,27.56-2.66,40.88,2.57,14.52,5.7,22.34,18.22,21.53,34-1,20.2-11.67,32.67-31.57,37.38-10.36,2.44-20.76,2-31.23,1.33-3.46-.24-4.34-1.75-4.26-5.13C131.43,209.7,131.28,198.89,131.28,188.08Z"/></svg>